<svg class="main-svg" xmlns="http://www.w3.org/2000/svg" xmlns:xlink="http://www.w3.org/1999/xlink" width="700" height="700" style="" viewBox="0 0 700 700"><rect x="0" y="0" width="700" height="700" style="fill: rgb(255, 255, 255); fill-opacity: 1;"/><defs id="defs-8bf78b"><g class="clips"><clipPath id="clip8bf78bpolar-for-traces"><path d="M245,0A245,245 0,1,0 -245,-3.0003846579110155e-14A245,245 0,1,0 245,6.000769315822031e-14Z" transform="translate(245,245)"/></clipPath></g><g class="gradients"/><g class="patterns"/></defs><g class="bglayer"/><g class="layer-below"><g class="imagelayer"/><g class="shapelayer"/></g><g class="cartesianlayer"/><g class="polarlayer"><g class="polar"><g class="polarsublayer draglayer"/><g class="polarsublayer plotbg"><path d="M245,0A245,245 0,1,0 -245,-3.0003846579110155e-14A245,245 0,1,0 245,6.000769315822031e-14Z" transform="translate(350,345)" style="fill: rgb(255, 255, 255); fill-opacity: 1;"/></g><g class="polarsublayer backplot"><g class="maplayer"/></g><g class="polarsublayer angular-grid" style="fill: none;"><path class="angularaxisgrid" d="M350,345L350,100" style="stroke: rgb(255, 255, 255); stroke-opacity: 1; stroke-width: 1px;"/><path class="angularaxisgrid" d="M350,345L472.5,132.8237760728125" style="stroke: rgb(255, 255, 255); stroke-opacity: 1; stroke-width: 1px;"/><path class="angularaxisgrid" d="M350,345L562.1762239271875,222.5" style="stroke: rgb(255, 255, 255); stroke-opacity: 1; stroke-width: 1px;"/><path class="angularaxisgrid" d="M350,345L595,345" style="stroke: rgb(255, 255, 255); stroke-opacity: 1; stroke-width: 1px;"/><path class="angularaxisgrid" d="M350,345L562.1762239271875,467.49999999999994" style="stroke: rgb(255, 255, 255); stroke-opacity: 1; stroke-width: 1px;"/><path class="angularaxisgrid" d="M350,345L472.5,557.1762239271875" style="stroke: rgb(255, 255, 255); stroke-opacity: 1; stroke-width: 1px;"/><path class="angularaxisgrid" d="M350,345L350,590" style="stroke: rgb(255, 255, 255); stroke-opacity: 1; stroke-width: 1px;"/><path class="angularaxisgrid" d="M350,345L227.50000000000006,557.1762239271875" style="stroke: rgb(255, 255, 255); stroke-opacity: 1; stroke-width: 1px;"/><path class="angularaxisgrid" d="M350,345L137.82377607281256,467.5000000000001" style="stroke: rgb(255, 255, 255); stroke-opacity: 1; stroke-width: 1px;"/><path class="angularaxisgrid" d="M350,345L105,345.00000000000006" style="stroke: rgb(255, 255, 255); stroke-opacity: 1; stroke-width: 1px;"/><path class="angularaxisgrid" d="M350,345L137.82377607281254,222.49999999999997" style="stroke: rgb(255, 255, 255); stroke-opacity: 1; stroke-width: 1px;"/><path class="angularaxisgrid" d="M350,345L227.4999999999999,132.82377607281256" style="stroke: rgb(255, 255, 255); stroke-opacity: 1; stroke-width: 1px;"/></g><g class="polarsublayer radial-grid" transform="translate(350,345)" style="fill: none;"><path class="xgrid" d="M28.5,0A28.5,28.5 0,1,0 -28.5,-3.4902433775699565e-15A28.5,28.5 0,1,0 28.5,6.980486755139913e-15Z" style="stroke: rgb(128, 128, 128); stroke-opacity: 1; stroke-width: 0.1px;"/><path class="xgrid" d="M57,0A57,57 0,1,0 -57,-6.980486755139913e-15A57,57 0,1,0 57,1.3960973510279826e-14Z" style="stroke: rgb(128, 128, 128); stroke-opacity: 1; stroke-width: 0.1px;"/><path class="xgrid" d="M85.5,0A85.5,85.5 0,1,0 -85.5,-1.047073013270987e-14A85.5,85.5 0,1,0 85.5,2.094146026541974e-14Z" style="stroke: rgb(128, 128, 128); stroke-opacity: 1; stroke-width: 0.1px;"/><path class="xgrid" d="M114,0A114,114 0,1,0 -114,-1.3960973510279826e-14A114,114 0,1,0 114,2.7921947020559652e-14Z" style="stroke: rgb(128, 128, 128); stroke-opacity: 1; stroke-width: 0.1px;"/><path class="xgrid" d="M142.5,0A142.5,142.5 0,1,0 -142.5,-1.7451216887849784e-14A142.5,142.5 0,1,0 142.5,3.490243377569957e-14Z" style="stroke: rgb(128, 128, 128); stroke-opacity: 1; stroke-width: 0.1px;"/><path class="xgrid" d="M171,0A171,171 0,1,0 -171,-2.094146026541974e-14A171,171 0,1,0 171,4.188292053083948e-14Z" style="stroke: rgb(128, 128, 128); stroke-opacity: 1; stroke-width: 0.1px;"/><path class="xgrid" d="M199.49,0A199.49,199.49 0,1,0 -199.49,-2.443047899619055e-14A199.49,199.49 0,1,0 199.49,4.88609579923811e-14Z" style="stroke: rgb(128, 128, 128); stroke-opacity: 1; stroke-width: 0.1px;"/><path class="xgrid" d="M227.99,0A227.99,227.99 0,1,0 -227.99,-2.7920722373760506e-14A227.99,227.99 0,1,0 227.99,5.584144474752101e-14Z" style="stroke: rgb(128, 128, 128); stroke-opacity: 1; stroke-width: 0.1px;"/></g><g class="polarsublayer frontplot" transform="translate(105,100)" clip-path="url(#clip8bf78bpolar-for-traces)"><g class="barlayer"><g class="trace bars" style="opacity: 0.9;"><g class="points"><g class="point" style="vector-effect: none; stroke-miterlimit: 2;"><path d="M245,245L265.07543590102017,161.3797914570158A85.9962929630582,85.9962929630582 0,0,0 224.92456409897986,161.3797914570158L245,245A0,0 0,0,1 245,245Z" style="opacity: 1; stroke-width: 0.5px; fill: rgb(134, 159, 183); fill-opacity: 1; stroke: rgb(229, 236, 246); stroke-opacity: 1;"/></g><g class="point" style="vector-effect: none; stroke-miterlimit: 2;"><path d="M245,245L289.5004388647454,198.10632195805084A64.64755292705922,64.64755292705922 0,0,0 263.3608970288438,183.0146504425996L245,245A0,0 0,0,1 245,245Z" style="opacity: 1; stroke-width: 0.5px; fill: rgb(134, 159, 183); fill-opacity: 1; stroke: rgb(229, 236, 246); stroke-opacity: 1;"/></g><g class="point" style="vector-effect: none; stroke-miterlimit: 2;"><path d="M245,245L281.2911050728194,234.2500849303441A37.849768578040624,37.849768578040624 0,0,0 272.45525207525685,218.94593861035605L245,245A0,0 0,0,1 245,245Z" style="opacity: 1; stroke-width: 0.5px; fill: rgb(134, 159, 183); fill-opacity: 1; stroke: rgb(229, 236, 246); stroke-opacity: 1;"/></g><g class="point" style="vector-effect: none; stroke-miterlimit: 2;"><path d="M245,245L281.26636849053966,253.70678474355097A37.29688437473215,37.29688437473215 0,0,0 281.26636849053966,236.293215256449L245,245A0,0 0,0,1 245,245Z" style="opacity: 1; stroke-width: 0.5px; fill: rgb(134, 159, 183); fill-opacity: 1; stroke: rgb(229, 236, 246); stroke-opacity: 1;"/></g><g class="point" style="vector-effect: none; stroke-miterlimit: 2;"><path d="M245,245L265.8420940759536,264.77840877421806A28.73287906059827,28.73287906059827 0,0,0 272.54965148288267,253.16057855073194L245,245A0,0 0,0,1 245,245Z" style="opacity: 1; stroke-width: 0.5px; fill: rgb(134, 159, 183); fill-opacity: 1; stroke: rgb(229, 236, 246); stroke-opacity: 1;"/></g><g class="point" style="vector-effect: none; stroke-miterlimit: 2;"><path d="M245,245L252.74210809737662,271.136918908329A27.259471157966914,27.259471157966914 0,0,0 263.76418170257847,264.77332174533785L245,245A0,0 0,0,1 245,245Z" style="opacity: 1; stroke-width: 0.5px; fill: rgb(134, 159, 183); fill-opacity: 1; stroke: rgb(229, 236, 246); stroke-opacity: 1;"/></g><g class="point" style="vector-effect: none; stroke-miterlimit: 2;"><path d="M245,245L236.10227407654537,282.0616957432931A38.114811005399844,38.114811005399844 0,0,0 253.89772592345463,282.0616957432931L245,245A0,0 0,0,1 245,245Z" style="opacity: 1; stroke-width: 0.5px; fill: rgb(134, 159, 183); fill-opacity: 1; stroke: rgb(229, 236, 246); stroke-opacity: 1;"/></g><g class="point" style="vector-effect: none; stroke-miterlimit: 2;"><path d="M245,245L221.28434996314994,269.9910806669513A34.45266563812463,34.45266563812463 0,0,0 235.21491429281906,278.03389573264917L245,245A0,0 0,0,1 245,245Z" style="opacity: 1; stroke-width: 0.5px; fill: rgb(134, 159, 183); fill-opacity: 1; stroke: rgb(229, 236, 246); stroke-opacity: 1;"/></g><g class="point" style="vector-effect: none; stroke-miterlimit: 2;"><path d="M245,245L209.96313912779988,255.3783910114546A36.541655952687066,36.541655952687066 0,0,0 218.49361929757222,270.15361607845904L245,245A0,0 0,0,1 245,245Z" style="opacity: 1; stroke-width: 0.5px; fill: rgb(134, 159, 183); fill-opacity: 1; stroke: rgb(229, 236, 246); stroke-opacity: 1;"/></g><g class="point" style="vector-effect: none; stroke-miterlimit: 2;"><path d="M245,245L198.14497146496183,233.7511028926446A48.18642324505014,48.18642324505014 0,0,0 198.14497146496183,256.2488971073554L245,245A0,0 0,0,1 245,245Z" style="opacity: 1; stroke-width: 0.5px; fill: rgb(134, 159, 183); fill-opacity: 1; stroke: rgb(229, 236, 246); stroke-opacity: 1;"/></g><g class="point" style="vector-effect: none; stroke-miterlimit: 2;"><path d="M245,245L212.78592025534766,214.4299797729974A44.41028113482472,44.41028113482472 0,0,0 202.41854601688544,232.38679869509463L245,245A0,0 0,0,1 245,245Z" style="opacity: 1; stroke-width: 0.5px; fill: rgb(134, 159, 183); fill-opacity: 1; stroke: rgb(229, 236, 246); stroke-opacity: 1;"/></g><g class="point" style="vector-effect: none; stroke-miterlimit: 2;"><path d="M245,245L229.51416496403462,192.72069706699943A54.52464215308134,54.52464215308134 0,0,0 207.46771308586193,205.44922199353857L245,245A0,0 0,0,1 245,245Z" style="opacity: 1; stroke-width: 0.5px; fill: rgb(134, 159, 183); fill-opacity: 1; stroke: rgb(229, 236, 246); stroke-opacity: 1;"/></g></g></g><g class="trace bars" style="opacity: 0.9;"><g class="points"><g class="point" style="vector-effect: none; stroke-miterlimit: 2;"><path d="M265.07543590102017,161.3797914570158L279.2709479414532,102.25122841868432A146.8050055712694,146.8050055712694 0,0,0 210.7290520585468,102.25122841868429L224.92456409897986,161.3797914570158A85.9962929630582,85.9962929630582 0,0,1 265.07543590102017,161.3797914570158Z" style="opacity: 1; stroke-width: 0.5px; fill: rgb(61, 107, 166); fill-opacity: 1; stroke: rgb(229, 236, 246); stroke-opacity: 1;"/></g><g class="point" style="vector-effect: none; stroke-miterlimit: 2;"><path d="M289.5004388647454,198.10632195805084L319.8193545169513,166.15685122368635A108.6930444844433,108.6930444844433 0,0,0 275.87049249616797,140.78296390540936L263.3608970288438,183.0146504425996A64.64755292705922,64.64755292705922 0,0,1 289.5004388647454,198.10632195805084Z" style="opacity: 1; stroke-width: 0.5px; fill: rgb(61, 107, 166); fill-opacity: 1; stroke: rgb(229, 236, 246); stroke-opacity: 1;"/></g><g class="point" style="vector-effect: none; stroke-miterlimit: 2;"><path d="M281.2911050728194,234.2500849303441L301.47924484226365,228.27008549245403A58.90496700094283,58.90496700094283 0,0,0 287.72815338780845,204.4524964338114L272.45525207525685,218.94593861035605A37.849768578040624,37.849768578040624 0,0,1 281.2911050728194,234.2500849303441Z" style="opacity: 1; stroke-width: 0.5px; fill: rgb(61, 107, 166); fill-opacity: 1; stroke: rgb(229, 236, 246); stroke-opacity: 1;"/></g><g class="point" style="vector-effect: none; stroke-miterlimit: 2;"><path d="M281.26636849053966,253.70678474355097L298.3257223858374,257.8023732574426A54.84098311476815,54.84098311476815 0,0,0 298.3257223858374,232.19762674255736L281.26636849053966,236.293215256449A37.29688437473215,37.29688437473215 0,0,1 281.26636849053966,253.70678474355097Z" style="opacity: 1; stroke-width: 0.5px; fill: rgb(61, 107, 166); fill-opacity: 1; stroke: rgb(229, 236, 246); stroke-opacity: 1;"/></g><g class="point" style="vector-effect: none; stroke-miterlimit: 2;"><path d="M265.8420940759536,264.77840877421806L274.91735622566955,273.3905109879472A41.244021599382876,41.244021599382876 0,0,0 284.5455818548183,256.71393501152477L272.54965148288267,253.16057855073194A28.73287906059827,28.73287906059827 0,0,1 265.8420940759536,264.77840877421806Z" style="opacity: 1; stroke-width: 0.5px; fill: rgb(61, 107, 166); fill-opacity: 1; stroke: rgb(229, 236, 246); stroke-opacity: 1;"/></g><g class="point" style="vector-effect: none; stroke-miterlimit: 2;"><path d="M252.74210809737662,271.136918908329L256.072064470885,282.3786632249903A38.98403617039513,38.98403617039513 0,0,0 271.83483967690233,273.27802071662063L263.76418170257847,264.77332174533785A27.259471157966914,27.259471157966914 0,0,1 252.74210809737662,271.136918908329Z" style="opacity: 1; stroke-width: 0.5px; fill: rgb(61, 107, 166); fill-opacity: 1; stroke: rgb(229, 236, 246); stroke-opacity: 1;"/></g><g class="point" style="vector-effect: none; stroke-miterlimit: 2;"><path d="M236.10227407654537,282.0616957432931L231.98273475263096,299.2208119420722A55.76150681409103,55.76150681409103 0,0,0 258.01726524736904,299.2208119420722L253.89772592345463,282.0616957432931A38.114811005399844,38.114811005399844 0,0,1 236.10227407654537,282.0616957432931Z" style="opacity: 1; stroke-width: 0.5px; fill: rgb(61, 107, 166); fill-opacity: 1; stroke: rgb(229, 236, 246); stroke-opacity: 1;"/></g><g class="point" style="vector-effect: none; stroke-miterlimit: 2;"><path d="M221.28434996314994,269.9910806669513L209.6295665345019,282.2726598085145A51.38403188480329,51.38403188480329 0,0,0 230.40614647196026,294.2680238282459L235.21491429281906,278.03389573264917A34.45266563812463,34.45266563812463 0,0,1 221.28434996314994,269.9910806669513Z" style="opacity: 1; stroke-width: 0.5px; fill: rgb(61, 107, 166); fill-opacity: 1; stroke: rgb(229, 236, 246); stroke-opacity: 1;"/></g><g class="point" style="vector-effect: none; stroke-miterlimit: 2;"><path d="M209.96313912779988,255.3783910114546L191.6358714729998,260.8071750165884A55.65605982686209,55.65605982686209 0,0,0 204.62852061006768,283.31110344690586L218.49361929757222,270.15361607845904A36.541655952687066,36.541655952687066 0,0,1 209.96313912779988,255.3783910114546Z" style="opacity: 1; stroke-width: 0.5px; fill: rgb(61, 107, 166); fill-opacity: 1; stroke: rgb(229, 236, 246); stroke-opacity: 1;"/></g><g class="point" style="vector-effect: none; stroke-miterlimit: 2;"><path d="M198.14497146496183,233.7511028926446L174.00526519759035,227.95567216741554A73.01206394103026,73.01206394103026 0,0,0 174.00526519759032,262.04432783258443L198.14497146496183,256.2488971073554A48.18642324505014,48.18642324505014 0,0,1 198.14497146496183,233.7511028926446Z" style="opacity: 1; stroke-width: 0.5px; fill: rgb(61, 107, 166); fill-opacity: 1; stroke: rgb(229, 236, 246); stroke-opacity: 1;"/></g><g class="point" style="vector-effect: none; stroke-miterlimit: 2;"><path d="M212.78592025534766,214.4299797729974L195.4809044341011,198.00813293219406A68.26694951572813,68.26694951572813 0,0,0 179.54430156506925,225.61113880140516L202.41854601688544,232.38679869509463A44.41028113482472,44.41028113482472 0,0,1 212.78592025534766,214.4299797729974Z" style="opacity: 1; stroke-width: 0.5px; fill: rgb(61, 107, 166); fill-opacity: 1; stroke: rgb(229, 236, 246); stroke-opacity: 1;"/></g><g class="point" style="vector-effect: none; stroke-miterlimit: 2;"><path d="M229.51416496403462,192.72069706699943L221.40134222906278,165.3322665162225A83.08937601782806,83.08937601782806 0,0,0 187.8050478265892,184.7290961332645L207.46771308586193,205.44922199353857A54.52464215308134,54.52464215308134 0,0,1 229.51416496403462,192.72069706699943Z" style="opacity: 1; stroke-width: 0.5px; fill: rgb(61, 107, 166); fill-opacity: 1; stroke: rgb(229, 236, 246); stroke-opacity: 1;"/></g></g></g><g class="trace bars" style="opacity: 0.9;"><g class="points"><g class="point" style="vector-effect: none; stroke-miterlimit: 2;"><path d="M279.2709479414532,102.25122841868432L299.334408437462,18.68090102744077A232.75,232.75 0,0,0 190.66559156253803,18.68090102744077L210.7290520585468,102.25122841868429A146.8050055712694,146.8050055712694 0,0,1 279.2709479414532,102.25122841868432Z" style="opacity: 1; stroke-width: 0.5px; fill: rgb(93, 99, 95); fill-opacity: 1; stroke: rgb(229, 236, 246); stroke-opacity: 1;"/></g><g class="point" style="vector-effect: none; stroke-miterlimit: 2;"><path d="M319.8193545169513,166.15685122368635L359.06229134689164,124.80342433463896A165.70281563383904,165.70281563383904 0,0,0 292.06214230065535,86.12087024704937L275.87049249616797,140.78296390540936A108.6930444844433,108.6930444844433 0,0,1 319.8193545169513,166.15685122368635Z" style="opacity: 1; stroke-width: 0.5px; fill: rgb(93, 99, 95); fill-opacity: 1; stroke: rgb(229, 236, 246); stroke-opacity: 1;"/></g><g class="point" style="vector-effect: none; stroke-miterlimit: 2;"><path d="M301.47924484226365,228.27008549245403L315.9290124520121,223.9898693273806A73.97533641895946,73.97533641895946 0,0,0 298.6598131253251,194.07873868752446L287.72815338780845,204.4524964338114A58.90496700094283,58.90496700094283 0,0,1 301.47924484226365,228.27008549245403Z" style="opacity: 1; stroke-width: 0.5px; fill: rgb(93, 99, 95); fill-opacity: 1; stroke: rgb(229, 236, 246); stroke-opacity: 1;"/></g><g class="point" style="vector-effect: none; stroke-miterlimit: 2;"><path d="M298.3257223858374,257.8023732574426L302.7762295911409,258.870845504569A59.41795234421873,59.41795234421873 0,0,0 302.7762295911409,231.129154495431L298.3257223858374,232.19762674255736A54.84098311476815,54.84098311476815 0,0,1 298.3257223858374,257.8023732574426Z" style="opacity: 1; stroke-width: 0.5px; fill: rgb(93, 99, 95); fill-opacity: 1; stroke: rgb(229, 236, 246); stroke-opacity: 1;"/></g><g class="point" style="vector-effect: none; stroke-miterlimit: 2;"><path d="M274.91735622566955,273.3905109879472L275.91377453003474,274.3360766524159A42.6176823519328,42.6176823519328 0,0,0 285.86267489337706,257.10407574366644L284.5455818548183,256.71393501152477A41.244021599382876,41.244021599382876 0,0,1 274.91735622566955,273.3905109879472Z" style="opacity: 1; stroke-width: 0.5px; fill: rgb(93, 99, 95); fill-opacity: 1; stroke: rgb(229, 236, 246); stroke-opacity: 1;"/></g><g class="point" style="vector-effect: none; stroke-miterlimit: 2;"><path d="M256.072064470885,282.3786632249903L256.38207256302246,283.425233004592A40.07555498414331,40.07555498414331 0,0,0 272.5861916468017,274.06978048959127L271.83483967690233,273.27802071662063A38.98403617039513,38.98403617039513 0,0,1 256.072064470885,282.3786632249903Z" style="opacity: 1; stroke-width: 0.5px; fill: rgb(93, 99, 95); fill-opacity: 1; stroke: rgb(229, 236, 246); stroke-opacity: 1;"/></g><g class="point" style="vector-effect: none; stroke-miterlimit: 2;"><path d="M231.98273475263096,299.2208119420722L231.15709710712423,302.65984023707944A59.29825576412102,59.29825576412102 0,0,0 258.84290289287577,302.65984023707944L258.01726524736904,299.2208119420722A55.76150681409103,55.76150681409103 0,0,1 231.98273475263096,299.2208119420722Z" style="opacity: 1; stroke-width: 0.5px; fill: rgb(93, 99, 95); fill-opacity: 1; stroke: rgb(229, 236, 246); stroke-opacity: 1;"/></g><g class="point" style="vector-effect: none; stroke-miterlimit: 2;"><path d="M209.6295665345019,282.2726598085145L205.04690804446287,287.1017742462677A58.04144167309506,58.04144167309506 0,0,0 228.5153399361033,300.6512797163647L230.40614647196026,294.2680238282459A51.38403188480329,51.38403188480329 0,0,1 209.6295665345019,282.2726598085145Z" style="opacity: 1; stroke-width: 0.5px; fill: rgb(93, 99, 95); fill-opacity: 1; stroke: rgb(229, 236, 246); stroke-opacity: 1;"/></g><g class="point" style="vector-effect: none; stroke-miterlimit: 2;"><path d="M191.6358714729998,260.8071750165884L182.74139462547123,263.44183908945416A64.93254478443473,64.93254478443473 0,0,0 197.89959616876348,289.69661431380524L204.62852061006768,283.31110344690586A55.65605982686209,55.65605982686209 0,0,1 191.6358714729998,260.8071750165884Z" style="opacity: 1; stroke-width: 0.5px; fill: rgb(93, 99, 95); fill-opacity: 1; stroke: rgb(229, 236, 246); stroke-opacity: 1;"/></g><g class="point" style="vector-effect: none; stroke-miterlimit: 2;"><path d="M174.00526519759035,227.95567216741554L163.43877455386544,225.4188822058384A83.87880346275821,83.87880346275821 0,0,0 163.43877455386541,264.5811177941615L174.00526519759032,262.04432783258443A73.01206394103026,73.01206394103026 0,0,1 174.00526519759035,227.95567216741554Z" style="opacity: 1; stroke-width: 0.5px; fill: rgb(93, 99, 95); fill-opacity: 1; stroke: rgb(229, 236, 246); stroke-opacity: 1;"/></g><g class="point" style="vector-effect: none; stroke-miterlimit: 2;"><path d="M195.4809044341011,198.00813293219406L187.65840056746666,190.58485393976784A79.05104139881718,79.05104139881718 0,0,0 169.20430144493156,222.54829122791085L179.54430156506925,225.61113880140516A68.26694951572813,68.26694951572813 0,0,1 195.4809044341011,198.00813293219406Z" style="opacity: 1; stroke-width: 0.5px; fill: rgb(93, 99, 95); fill-opacity: 1; stroke: rgb(229, 236, 246); stroke-opacity: 1;"/></g><g class="point" style="vector-effect: none; stroke-miterlimit: 2;"><path d="M221.40134222906278,165.3322665162225L218.3700620592065,155.09883616476486A93.76232107654067,93.76232107654067 0,0,0 180.45827725929632,176.98721532445217L187.8050478265892,184.7290961332645A83.08937601782806,83.08937601782806 0,0,1 221.40134222906278,165.3322665162225Z" style="opacity: 1; stroke-width: 0.5px; fill: rgb(93, 99, 95); fill-opacity: 1; stroke: rgb(229, 236, 246); stroke-opacity: 1;"/></g></g></g></g><g class="scatterlayer"/></g><g class="polarsublayer angular-line"><path display="none" style="fill: none; stroke: rgb(0, 0, 0); stroke-opacity: 1;"/></g><g class="polarsublayer radial-line"><line display="none" style="fill: none; stroke: rgb(0, 0, 0); stroke-opacity: 1;"/></g><g class="polarsublayer angular-axis"><g class="angularaxistick"><text text-anchor="middle" x="3.061616997868383e-17" y="-2.9" transform="translate(350,100)" style="font-family: 'Open Sans', verdana, arial, sans-serif; font-size: 12px; fill: rgb(42, 63, 95); fill-opacity: 1; white-space: pre; opacity: 1;">January</text></g><g class="angularaxistick"><text text-anchor="start" x="0.24999999999999994" y="-0.4114736709748734" transform="translate(472.5,132.8237760728125)" style="font-family: 'Open Sans', verdana, arial, sans-serif; font-size: 12px; fill: rgb(42, 63, 95); fill-opacity: 1; white-space: pre; opacity: 1;">February</text></g><g class="angularaxistick"><text text-anchor="start" x="0.4330127018922193" y="2.1873066958946414" transform="translate(562.1762239271875,222.5)" style="font-family: 'Open Sans', verdana, arial, sans-serif; font-size: 12px; fill: rgb(42, 63, 95); fill-opacity: 1; white-space: pre; opacity: 1;">March</text></g><g class="angularaxistick"><text text-anchor="start" x="0.5" y="4.199999999999999" transform="translate(595,345)" style="font-family: 'Open Sans', verdana, arial, sans-serif; font-size: 12px; fill: rgb(42, 63, 95); fill-opacity: 1; white-space: pre; opacity: 1;">April</text></g><g class="angularaxistick"><text text-anchor="start" x="0.43301270189221935" y="9.88730669589464" transform="translate(562.1762239271875,467.49999999999994)" style="font-family: 'Open Sans', verdana, arial, sans-serif; font-size: 12px; fill: rgb(42, 63, 95); fill-opacity: 1; white-space: pre; opacity: 1;">May</text></g><g class="angularaxistick"><text text-anchor="start" x="0.24999999999999994" y="12.925317547305484" transform="translate(472.5,557.1762239271875)" style="font-family: 'Open Sans', verdana, arial, sans-serif; font-size: 12px; fill: rgb(42, 63, 95); fill-opacity: 1; white-space: pre; opacity: 1;">June</text></g><g class="angularaxistick"><text text-anchor="middle" x="3.061616997868383e-17" y="12.5" transform="translate(350,590)" style="font-family: 'Open Sans', verdana, arial, sans-serif; font-size: 12px; fill: rgb(42, 63, 95); fill-opacity: 1; white-space: pre; opacity: 1;">July</text></g><g class="angularaxistick"><text text-anchor="end" x="-0.2499999999999999" y="12.925317547305482" transform="translate(227.50000000000006,557.1762239271875)" style="font-family: 'Open Sans', verdana, arial, sans-serif; font-size: 12px; fill: rgb(42, 63, 95); fill-opacity: 1; white-space: pre; opacity: 1;">August</text></g><g class="angularaxistick"><text text-anchor="end" x="-0.43301270189221924" y="9.887306695894646" transform="translate(137.82377607281256,467.5000000000001)" style="font-family: 'Open Sans', verdana, arial, sans-serif; font-size: 12px; fill: rgb(42, 63, 95); fill-opacity: 1; white-space: pre; opacity: 1;">September</text></g><g class="angularaxistick"><text text-anchor="end" x="-0.5" y="4.200000000000001" transform="translate(105,345.00000000000006)" style="font-family: 'Open Sans', verdana, arial, sans-serif; font-size: 12px; fill: rgb(42, 63, 95); fill-opacity: 1; white-space: pre; opacity: 1;">October</text></g><g class="angularaxistick"><text text-anchor="end" x="-0.4330127018922193" y="2.187306695894641" transform="translate(137.82377607281254,222.49999999999997)" style="font-family: 'Open Sans', verdana, arial, sans-serif; font-size: 12px; fill: rgb(42, 63, 95); fill-opacity: 1; white-space: pre; opacity: 1;">November</text></g><g class="angularaxistick"><text text-anchor="end" x="-0.2500000000000002" y="-0.4114736709748703" transform="translate(227.4999999999999,132.82377607281256)" style="font-family: 'Open Sans', verdana, arial, sans-serif; font-size: 12px; fill: rgb(42, 63, 95); fill-opacity: 1; white-space: pre; opacity: 1;">December</text></g></g><g class="polarsublayer radial-axis" transform="translate(350,345)"><g class="xtick"><text text-anchor="middle" x="0" y="12.5" transform="" style="font-family: 'Open Sans', verdana, arial, sans-serif; font-size: 12px; fill: rgb(42, 63, 95); fill-opacity: 1; white-space: pre; opacity: 1;">0</text></g><g class="xtick"><text text-anchor="middle" x="0" y="12.5" transform="translate(28.5,0)" style="font-family: 'Open Sans', verdana, arial, sans-serif; font-size: 12px; fill: rgb(42, 63, 95); fill-opacity: 1; white-space: pre; opacity: 1;">10k</text></g><g class="xtick"><text text-anchor="middle" x="0" y="12.5" transform="translate(57,0)" style="font-family: 'Open Sans', verdana, arial, sans-serif; font-size: 12px; fill: rgb(42, 63, 95); fill-opacity: 1; white-space: pre; opacity: 1;">20k</text></g><g class="xtick"><text text-anchor="middle" x="0" y="12.5" transform="translate(85.5,0)" style="font-family: 'Open Sans', verdana, arial, sans-serif; font-size: 12px; fill: rgb(42, 63, 95); fill-opacity: 1; white-space: pre; opacity: 1;">30k</text></g><g class="xtick"><text text-anchor="middle" x="0" y="12.5" transform="translate(114,0)" style="font-family: 'Open Sans', verdana, arial, sans-serif; font-size: 12px; fill: rgb(42, 63, 95); fill-opacity: 1; white-space: pre; opacity: 1;">40k</text></g><g class="xtick"><text text-anchor="middle" x="0" y="12.5" transform="translate(142.5,0)" style="font-family: 'Open Sans', verdana, arial, sans-serif; font-size: 12px; fill: rgb(42, 63, 95); fill-opacity: 1; white-space: pre; opacity: 1;">50k</text></g><g class="xtick"><text text-anchor="middle" x="0" y="12.5" transform="translate(171,0)" style="font-family: 'Open Sans', verdana, arial, sans-serif; font-size: 12px; fill: rgb(42, 63, 95); fill-opacity: 1; white-space: pre; opacity: 1;">60k</text></g><g class="xtick"><text text-anchor="middle" x="0" y="12.5" transform="translate(199.49,0)" style="font-family: 'Open Sans', verdana, arial, sans-serif; font-size: 12px; fill: rgb(42, 63, 95); fill-opacity: 1; white-space: pre; opacity: 1;">70k</text></g><g class="xtick"><text text-anchor="middle" x="0" y="12.5" transform="translate(227.99,0)" style="font-family: 'Open Sans', verdana, arial, sans-serif; font-size: 12px; fill: rgb(42, 63, 95); fill-opacity: 1; white-space: pre; opacity: 1;">80k</text></g></g></g></g><g class="smithlayer"/><g class="ternarylayer"/><g class="geolayer"/><g class="funnelarealayer"/><g class="pielayer"/><g class="iciclelayer"/><g class="treemaplayer"/><g class="sunburstlayer"/><g class="glimages"/><defs id="topdefs-8bf78b"><g class="clips"/><clipPath id="legend8bf78b"><rect width="235" height="78" x="0" y="0"/></clipPath></defs><g class="layer-above"><g class="imagelayer"/><g class="shapelayer"/></g><g class="infolayer"><g class="legend" pointer-events="all" transform="translate(26,610)"><rect class="bg" shape-rendering="crispEdges" width="235" height="78" x="0" y="0" style="stroke: rgb(68, 68, 68); stroke-opacity: 1; fill: rgb(255, 255, 255); fill-opacity: 1; stroke-width: 0px;"/><g class="scrollbox" transform="" clip-path="url(#legend8bf78b)"><g class="groups"><g class="traces" transform="translate(0,16.25)" style="opacity: 1;"><text class="legendtext" text-anchor="start" x="40" y="5.85" style="font-family: 'Open Sans', verdana, arial, sans-serif; font-size: 15px; fill: rgb(42, 63, 95); fill-opacity: 1; white-space: pre;">respiratory disease</text><g class="layers" style="opacity: 0.9;"><g class="legendfill"/><g class="legendlines"/><g class="legendsymbols"><g class="legendpoints"><path class="legendundefined" d="M6,6H-6V-6H6Z" transform="translate(20,0)" style="stroke-width: 0.5px; fill: rgb(134, 159, 183); fill-opacity: 1; stroke: rgb(229, 236, 246); stroke-opacity: 1;"/></g></g></g><rect class="legendtoggle" x="0" y="-11.25" width="229.78125" height="22.5" style="fill: rgb(0, 0, 0); fill-opacity: 0;"/></g><g class="traces" transform="translate(0,38.75)" style="opacity: 1;"><text class="legendtext" text-anchor="start" x="40" y="5.85" style="font-family: 'Open Sans', verdana, arial, sans-serif; font-size: 15px; fill: rgb(42, 63, 95); fill-opacity: 1; white-space: pre;">influenza and pneumonia</text><g class="layers" style="opacity: 0.9;"><g class="legendfill"/><g class="legendlines"/><g class="legendsymbols"><g class="legendpoints"><path class="legendundefined" d="M6,6H-6V-6H6Z" transform="translate(20,0)" style="stroke-width: 0.5px; fill: rgb(61, 107, 166); fill-opacity: 1; stroke: rgb(229, 236, 246); stroke-opacity: 1;"/></g></g></g><rect class="legendtoggle" x="0" y="-11.25" width="229.78125" height="22.5" style="fill: rgb(0, 0, 0); fill-opacity: 0;"/></g><g class="traces" transform="translate(0,61.25)" style="opacity: 1;"><text class="legendtext" text-anchor="start" x="40" y="5.85" style="font-family: 'Open Sans', verdana, arial, sans-serif; font-size: 15px; fill: rgb(42, 63, 95); fill-opacity: 1; white-space: pre;">COVID-19</text><g class="layers" style="opacity: 0.9;"><g class="legendfill"/><g class="legendlines"/><g class="legendsymbols"><g class="legendpoints"><path class="legendundefined" d="M6,6H-6V-6H6Z" transform="translate(20,0)" style="stroke-width: 0.5px; fill: rgb(93, 99, 95); fill-opacity: 1; stroke: rgb(229, 236, 246); stroke-opacity: 1;"/></g></g></g><rect class="legendtoggle" x="0" y="-11.25" width="229.78125" height="22.5" style="fill: rgb(0, 0, 0); fill-opacity: 0;"/></g></g></g><rect class="scrollbar" rx="20" ry="3" width="0" height="0" x="0" y="0" style="fill: rgb(128, 139, 164); fill-opacity: 1;"/></g><g class="g-gtitle"><text class="gtitle" x="35" y="50" text-anchor="start" dy="0em" style="font-family: 'Open Sans', verdana, arial, sans-serif; font-size: 17px; fill: rgb(42, 63, 95); opacity: 1; font-weight: normal; white-space: pre;">2021 monthly deaths by selected cause</text></g><g class="g-polartitle"/></g></svg>
